<?xml version="1.0" encoding="utf-8"?>
<!-- Generator: Adobe Illustrator 26.0.3, SVG Export Plug-In . SVG Version: 6.00 Build 0)  -->
<svg version="1.1" id="Capa_1" xmlns="http://www.w3.org/2000/svg" xmlns:xlink="http://www.w3.org/1999/xlink" x="0px" y="0px"
	 viewBox="0 0 399 100" style="enable-background:new 0 0 399 100;" xml:space="preserve">
<style type="text/css">
	.st0{fill:#24C5DE;}
</style>
<g>
	<g>
		<g>
			<path d="M165.91,73.82h-8.65l14.34-38.57c1.78-5.28,4.74-8.58,10.91-8.58c6.86,0,10.29,4.05,10.29,10.09v27.38
				c0,1.58,0.96,2.61,2.33,2.61c1.24,0,2.2-0.76,2.61-1.92l11.25-29.58c1.78-5.28,4.74-8.58,10.91-8.58
				c6.86,0,10.29,4.05,10.29,10.09v37.06h-8.17V37.17c0-1.65-0.96-2.68-2.33-2.68c-1.17,0-2.13,0.82-2.54,1.99l-11.25,29.58
				c-1.78,5.28-4.8,8.58-10.98,8.58c-6.79,0-10.23-4.05-10.23-10.16V37.17c0-1.65-1.03-2.68-2.4-2.68c-1.24,0-2.06,0.82-2.54,1.99
				L165.91,73.82z"/>
			<path d="M292.67,21.87v51.95h-7.27V21.87H292.67z"/>
			<path d="M310.38,21.87v51.95h-7.27V21.87H310.38z"/>
			<path d="M342.43,37.58c9.61,0,15.72,5.9,15.72,18.12c0,12.22-6.11,18.12-15.72,18.12h-7.62c-9.68,0-15.72-5.9-15.72-18.12
				c0-12.21,6.04-18.12,15.72-18.12H342.43z M335.5,44.58c-6.31,0-9.06,3.29-9.06,11.12c0,7.82,2.74,11.05,9.06,11.05h6.25
				c6.25,0,9.06-3.23,9.06-11.05c0-7.82-2.81-11.12-9.06-11.12H335.5z"/>
			<path d="M397.32,37.58l-3.08,7h-17.22c-3.36,0-4.73,1.37-4.73,4.12c0,2.54,1.1,3.91,5.15,3.91h8.51
				c10.02,0,12.56,4.6,12.56,10.23c0,6.45-3.36,10.98-11.87,10.98h-22.04l3.02-7.07h19.02c3.36,0,4.74-1.17,4.74-3.98
				c0-2.88-1.51-4.05-5.15-4.05h-8.58c-10.02,0-12.49-5.01-12.49-10.57c0-6.52,3.36-10.57,11.8-10.57H397.32z"/>
			<path d="M278.88,37.58l-21.82,50.78h-7.82l6.79-15.85c-4.12,0-5.56-1.3-6.79-4.46l-12.15-30.47h7.69l10.91,26.97
				c0.48,1.3,0.82,1.51,2.2,1.51h0.96l12.28-28.48H278.88z"/>
		</g>
		<g>
			<polygon class="st0" points="41.33,44.12 10.5,44.12 14.44,51.52 37.38,51.52 			"/>
			<path class="st0" d="M136.65,60.12l-25.21-32.64c-2.82-3.66-7.27-5.84-11.89-5.84H70.84c-5.56,0-10.64,3.05-13.26,7.96L40.2,62.2
				c-1.33,2.49-3.9,4.04-6.73,4.04H22.29l3.94,7.4h7.24c5.56,0,10.64-3.05,13.26-7.96l17.38-32.61c1.33-2.49,3.9-4.04,6.73-4.04
				h28.71c2.34,0,4.6,1.11,6.03,2.96l25.21,32.64c0.21,0.28,0.24,0.58,0.09,0.89c-0.15,0.31-0.41,0.47-0.76,0.48l-31.61,0.2
				c-2.86,0-5.45-1.57-6.76-4.11l-5.13-9.88c-2.59-4.99-7.7-8.1-13.33-8.1h-5.98l-3.91,7.4h9.89c2.86,0,5.45,1.57,6.76,4.11
				l5.13,9.88c2.6,4.99,7.7,8.1,13.41,8.1l31.57-0.2c3.16-0.02,5.98-1.79,7.37-4.63C138.92,65.93,138.58,62.62,136.65,60.12z"/>
			<polygon class="st0" points="51.33,25.35 0.5,25.35 4.44,32.75 47.39,32.75 			"/>
		</g>
	</g>
</g>
</svg>
